<?xml version='1.0' encoding='utf-8'?>
<svg xmlns="http://www.w3.org/2000/svg" width="640" height="400"><rect width="640" height="400" fill="white" /><text x="320" y="23" fill="#333333" text-anchor="middle" font-family="system-ui, -apple-system, Helvetica, Arial, sans-serif" font-size="14" font-weight="600">Learning Curve — Validation Exact Match</text><text x="0" y="0" fill="#555555" text-anchor="middle" font-family="system-ui, -apple-system, Helvetica, Arial, sans-serif" font-size="11" transform="translate(16, 190) rotate(-90)">Exact Match (val)</text><text x="340" y="392" fill="#555555" text-anchor="middle" font-family="system-ui, -apple-system, Helvetica, Arial, sans-serif" font-size="11">Training budget (examples)</text><line x1="65" y1="345.0" x2="615" y2="345.0" stroke="#EEEEEE" /><text x="57" y="349.0" fill="#777777" text-anchor="end" font-family="system-ui, -apple-system, Helvetica, Arial, sans-serif" font-size="10">0.00</text><line x1="65" y1="283.0" x2="615" y2="283.0" stroke="#EEEEEE" /><text x="57" y="287.0" fill="#777777" text-anchor="end" font-family="system-ui, -apple-system, Helvetica, Arial, sans-serif" font-size="10">0.10</text><line x1="65" y1="221.0" x2="615" y2="221.0" stroke="#EEEEEE" /><text x="57" y="225.0" fill="#777777" text-anchor="end" font-family="system-ui, -apple-system, Helvetica, Arial, sans-serif" font-size="10">0.20</text><line x1="65" y1="159.0" x2="615" y2="159.0" stroke="#EEEEEE" /><text x="57" y="163.0" fill="#777777" text-anchor="end" font-family="system-ui, -apple-system, Helvetica, Arial, sans-serif" font-size="10">0.30</text><line x1="65" y1="97.0" x2="615" y2="97.0" stroke="#EEEEEE" /><text x="57" y="101.0" fill="#777777" text-anchor="end" font-family="system-ui, -apple-system, Helvetica, Arial, sans-serif" font-size="10">0.40</text><line x1="65" y1="35.0" x2="615" y2="35.0" stroke="#EEEEEE" /><text x="57" y="39.0" fill="#777777" text-anchor="end" font-family="system-ui, -apple-system, Helvetica, Arial, sans-serif" font-size="10">0.50</text><text x="65.0" y="363" fill="#777777" text-anchor="middle" font-family="system-ui, -apple-system, Helvetica, Arial, sans-serif" font-size="10">10</text><text x="175.0" y="363" fill="#777777" text-anchor="middle" font-family="system-ui, -apple-system, Helvetica, Arial, sans-serif" font-size="10">25</text><text x="285.0" y="363" fill="#777777" text-anchor="middle" font-family="system-ui, -apple-system, Helvetica, Arial, sans-serif" font-size="10">50</text><text x="395.0" y="363" fill="#777777" text-anchor="middle" font-family="system-ui, -apple-system, Helvetica, Arial, sans-serif" font-size="10">100</text><text x="505.0" y="363" fill="#777777" text-anchor="middle" font-family="system-ui, -apple-system, Helvetica, Arial, sans-serif" font-size="10">250</text><text x="615.0" y="363" fill="#777777" text-anchor="middle" font-family="system-ui, -apple-system, Helvetica, Arial, sans-serif" font-size="10">500</text><rect x="65" y="35" width="550" height="310" fill="none" stroke="#CCCCCC" /><polygon points="65.0,117.7 175.0,138.3 285.0,138.3 395.0,138.3 505.0,138.3 615.0,138.3 615.0,179.7 505.0,179.7 395.0,179.7 285.0,179.7 175.0,179.7 65.0,241.7" fill="#4477AA" opacity="0.12" /><polyline points="65.0,181.7 175.0,161.1 285.0,163.1 395.0,156.9 505.0,152.8 615.0,152.8" fill="none" stroke="#4477AA" stroke-width="2" /><circle cx="65.0" cy="181.7" r="3.5" fill="#4477AA" /><circle cx="175.0" cy="161.1" r="3.5" fill="#4477AA" /><circle cx="285.0" cy="163.1" r="3.5" fill="#4477AA" /><circle cx="395.0" cy="156.9" r="3.5" fill="#4477AA" /><circle cx="505.0" cy="152.8" r="3.5" fill="#4477AA" /><circle cx="615.0" cy="152.8" r="3.5" fill="#4477AA" /><polygon points="65.0,345.0 175.0,345.0 285.0,303.7 395.0,324.3 505.0,324.3 615.0,117.7 615.0,117.7 505.0,324.3 395.0,324.3 285.0,303.7 175.0,345.0 65.0,345.0" fill="#EE6677" opacity="0.12" /><polyline points="65.0,345.0 175.0,345.0 285.0,303.7 395.0,324.3 505.0,324.3 615.0,117.7" fill="none" stroke="#EE6677" stroke-width="2" /><circle cx="65.0" cy="345.0" r="3.5" fill="#EE6677" /><circle cx="175.0" cy="345.0" r="3.5" fill="#EE6677" /><circle cx="285.0" cy="303.7" r="3.5" fill="#EE6677" /><circle cx="395.0" cy="324.3" r="3.5" fill="#EE6677" /><circle cx="505.0" cy="324.3" r="3.5" fill="#EE6677" /><circle cx="615.0" cy="117.7" r="3.5" fill="#EE6677" /><polygon points="65.0,221.0 175.0,97.0 285.0,97.0 395.0,97.0 505.0,97.0 615.0,138.3 615.0,179.7 505.0,179.7 395.0,138.3 285.0,138.3 175.0,221.0 65.0,324.3" fill="#228833" opacity="0.12" /><polyline points="65.0,297.5 175.0,159.0 285.0,125.9 395.0,117.7 505.0,138.3 615.0,152.8" fill="none" stroke="#228833" stroke-width="2" /><circle cx="65.0" cy="297.5" r="3.5" fill="#228833" /><circle cx="175.0" cy="159.0" r="3.5" fill="#228833" /><circle cx="285.0" cy="125.9" r="3.5" fill="#228833" /><circle cx="395.0" cy="117.7" r="3.5" fill="#228833" /><circle cx="505.0" cy="138.3" r="3.5" fill="#228833" /><circle cx="615.0" cy="152.8" r="3.5" fill="#228833" /><polygon points="65.0,200.3 175.0,138.3 285.0,138.3 395.0,138.3 505.0,138.3 615.0,159.0 615.0,159.0 505.0,159.0 395.0,179.7 285.0,179.7 175.0,241.7 65.0,345.0" fill="#CCBB44" opacity="0.12" /><polyline points="65.0,297.5 175.0,187.9 285.0,163.1 395.0,161.1 505.0,152.8 615.0,159.0" fill="none" stroke="#CCBB44" stroke-width="2" /><circle cx="65.0" cy="297.5" r="3.5" fill="#CCBB44" /><circle cx="175.0" cy="187.9" r="3.5" fill="#CCBB44" /><circle cx="285.0" cy="163.1" r="3.5" fill="#CCBB44" /><circle cx="395.0" cy="161.1" r="3.5" fill="#CCBB44" /><circle cx="505.0" cy="152.8" r="3.5" fill="#CCBB44" /><circle cx="615.0" cy="159.0" r="3.5" fill="#CCBB44" /><rect x="77" y="42" width="12" height="12" fill="#4477AA" rx="2" /><text x="95" y="52" fill="#333333" font-family="system-ui, -apple-system, Helvetica, Arial, sans-serif" font-size="11">random</text><rect x="77" y="60" width="12" height="12" fill="#EE6677" rx="2" /><text x="95" y="70" fill="#333333" font-family="system-ui, -apple-system, Helvetica, Arial, sans-serif" font-size="11">uncertainty</text><rect x="77" y="78" width="12" height="12" fill="#228833" rx="2" /><text x="95" y="88" fill="#333333" font-family="system-ui, -apple-system, Helvetica, Arial, sans-serif" font-size="11">diversity</text><rect x="77" y="96" width="12" height="12" fill="#CCBB44" rx="2" /><text x="95" y="106" fill="#333333" font-family="system-ui, -apple-system, Helvetica, Arial, sans-serif" font-size="11">kg_guided</text></svg>